<svg xmlns="http://www.w3.org/2000/svg" viewBox="0 0 356.19795 75.84089">
  <defs>
    <style>
      .cls-1, .cls-2, .cls-3 {
        fill: #fff;
      }

      .cls-1 {
        opacity: 0.98;
      }

      .cls-2 {
        opacity: 0.98;
      }
    </style>
  </defs>
  <g id="Capa_2" data-name="Capa 2">
    <g id="Capa_1-2" data-name="Capa 1">
      <g>
        <g>
          <g>
            <path class="cls-1" d="M98.57539,75.84089A37.99544,37.99544,0,0,1,88.03,74.53035a21.92349,21.92349,0,0,1-7.5835-3.73438,16.28561,16.28561,0,0,1-4.70215-5.85351A20.86753,20.86753,0,0,1,73.842,57.22371h4.29443a17.28042,17.28042,0,0,0,2.44581,6.85546,14.03894,14.03894,0,0,0,4.43066,4.34766A18.10982,18.10982,0,0,0,91.01973,70.712a36.71487,36.71487,0,0,0,7.17529.66992,27.19111,27.19111,0,0,0,7.14844-.86524,16.40131,16.40131,0,0,0,5.436-2.50781,10.88534,10.88534,0,0,0,4.64746-9.16992,11.58771,11.58771,0,0,0-1.03271-5.15625,9.31249,9.31249,0,0,0-3.479-3.65039,26.6918,26.6918,0,0,0-6.4414-2.78711q-3.99611-1.22461-9.9209-2.50781a53.05925,53.05925,0,0,1-8.39844-2.56446,21.93063,21.93063,0,0,1-5.78955-3.373,12.08526,12.08526,0,0,1-3.37012-4.40235,14.25876,14.25876,0,0,1-1.0874-5.76953,14.46165,14.46165,0,0,1,1.46777-6.52344,14.78247,14.78247,0,0,1,4.1587-5.07226,19.83724,19.83724,0,0,1,6.46875-3.28906,28.13455,28.13455,0,0,1,8.34423-1.16993,30.41243,30.41243,0,0,1,8.37159,1.0879,21.19675,21.19675,0,0,1,6.65869,3.14843,16.72794,16.72794,0,0,1,4.6206,5.01758,17.237,17.237,0,0,1,2.25586,6.68945h-4.18554a15.01908,15.01908,0,0,0-1.957-4.57226,13.27324,13.27324,0,0,0-3.50586-3.65039,16.85236,16.85236,0,0,0-5.10986-2.39649,24.20251,24.20251,0,0,0-6.76807-.86523q-7.99071,0-12.09521,3.00976a9.67984,9.67984,0,0,0-4.104,8.25,10.57581,10.57581,0,0,0,.76123,4.18165,8.14355,8.14355,0,0,0,2.582,3.20507,17.58051,17.58051,0,0,0,4.81054,2.50782,56.608,56.608,0,0,0,7.44776,2.03515q2.60889.55665,5.38135,1.16992,2.77221.61524,5.40869,1.44922a32.87107,32.87107,0,0,1,5.02832,2.0625,16.276,16.276,0,0,1,4.15869,3.00977,13.58543,13.58543,0,0,1,2.82666,4.26562,14.90059,14.90059,0,0,1,1.06006,5.88086,16.0136,16.0136,0,0,1-1.60352,7.16211,17.01847,17.01847,0,0,1-4.45752,5.63086,20.71717,20.71717,0,0,1-6.79492,3.67774A27.00538,27.00538,0,0,1,98.57539,75.84089Z"/>
            <path class="cls-1" d="M185.15986,18.14753H164.34V74.72566h-4.34912V18.14753h-20.602v-4.459h45.771Z"/>
            <path class="cls-1" d="M213.19892,74.72566H208.8498V13.68855h4.34912Z"/>
            <path class="cls-1" d="M284.83369,57.61238q0,8.30859-5.4624,12.71093-5.46314,4.40332-16.06348,4.40235H241.67256V13.68855h21.52685q8.96925,0,13.72559,3.48437,4.75635,3.48341,4.75635,11.11914a24.64207,24.64207,0,0,1-.40723,4.377,13.54013,13.54013,0,0,1-1.49512,4.209,11.92842,11.92842,0,0,1-2.98974,3.48242,11.78293,11.78293,0,0,1-4.89258,2.20313,16.32881,16.32881,0,0,1,6.71387,1.86719,11.49546,11.49546,0,0,1,3.91455,3.5957,12.51194,12.51194,0,0,1,1.84765,4.6543A27.63608,27.63608,0,0,1,284.83369,57.61238Zm-38.812-17.11133h15.98144q7.93653,0,11.6875-2.62109,3.75073-2.61915,3.751-8.80665,0-5.57226-3.479-8.27734-3.47975-2.70409-11.144-2.70312l-16.79687.05468Zm0,29.76562h17.23193q16.85084,0,16.85156-12.65429a16.71454,16.71454,0,0,0-.86962-5.68555,8.29892,8.29892,0,0,0-2.96289-3.92969,14.58922,14.58922,0,0,0-5.54444-2.28515,41.67021,41.67021,0,0,0-8.67041-.752H246.02168Z"/>
            <path class="cls-1" d="M356.198,74.72566H350.9792L343.695,55.10456H314.39424q-1.57617,4.62891-3.42383,9.78321-1.84863,5.15625-3.53418,9.83789h-4.62012q2.93555-7.91308,5.78906-15.4961,2.85353-7.57909,5.68067-15.07812,2.82568-7.49708,5.68066-15.07813,2.85352-7.5791,5.78907-15.4414h6.14257ZM342.444,51.59285,328.6374,17.64558,315.53584,51.59285Z"/>
          </g>
          <rect class="cls-2" x="14.45264" y="13.64201" width="41.60977" height="4.47341"/>
          <rect class="cls-2" x="14.45264" y="41.93807" width="32.84254" height="4.47341"/>
          <rect class="cls-3" x="14.45264" y="27.79004" width="41.60977" height="4.47341"/>
          <rect class="cls-3" x="14.45264" y="56.0861" width="41.60977" height="4.47341"/>
          <rect class="cls-2" x="14.45264" y="70.23414" width="41.60977" height="4.47341"/>
        </g>
        <polygon class="cls-2" points="0 0 14.407 13.609 14.407 18.083 0 4.473 0 0"/>
        <polygon class="cls-2" points="0 33.275 14.407 46.379 14.407 41.905 0 28.802 0 33.275"/>
        <polygon class="cls-2" points="0 18.621 14.407 32.231 14.407 27.757 0 14.148 0 18.621"/>
        <polygon class="cls-2" points="0 46.918 14.407 60.527 14.407 56.053 0 42.444 0 46.918"/>
        <polygon class="cls-2" points="0 61.066 14.407 74.675 14.407 70.202 0 56.592 0 61.066"/>
      </g>
    </g>
  </g>
</svg>
